<svg width="1102" height="1309" viewBox="0 0 1102 1309" fill="none" xmlns="http://www.w3.org/2000/svg">
<path fill-rule="evenodd" clip-rule="evenodd" d="M66.1055 545.473C64.9455 547.652 65.6439 548.186 65.2293 550.82C64.9891 552.343 64.3273 554.982 63.6759 556.731C62.3376 560.323 59.9034 564.842 57.5988 568.494C45.2376 588.078 36.2097 605.472 56.4852 627.066C62.087 633.032 63.4202 632.691 69.7221 632.71C76.5016 632.732 75.962 633.167 81.5041 626.718C84.7829 622.9 87.2808 619.105 89.5039 614.982C93.847 606.932 95.0259 598.461 94.4955 591.385C93.6704 580.352 81.9732 553.374 66.1055 545.473ZM65.5413 644.191C63.2252 652.256 58.463 713.857 59.7681 719.897C63.4282 720.532 75.0262 720.626 77.844 719.7C76.9277 711.323 77.184 692.221 76.4414 681.848C75.9116 674.432 74.4637 650.831 72.8208 643.779L65.5413 644.191ZM58.4171 751.13C57.9498 765.038 57.5639 758.098 58.4905 780.282C58.6321 783.706 58.3471 786.623 58.4567 790.128L63.8503 915.199C64.227 918.922 64.3543 921.38 64.6364 925.042C64.7872 926.992 65.0384 931.693 65.6089 934.014C66.4358 930.91 66.6732 928.204 66.9903 924.585L70.9807 876.356C71.4848 869.635 71.5455 863.655 72.1448 857.17C74.7819 826.42 77.8612 795.441 77.9403 764.591C78.039 748.125 77.4437 740.888 77.6416 731.663C75.1019 731.112 61.4212 730.961 59.0714 731.641L58.4171 751.13ZM53.2087 640.406C0.485039 588.676 62.0136 565.908 51.4776 540.924C49.5606 536.374 43.632 530.02 43.0408 526.704C45.9068 526.788 48.3799 527.68 51.7436 528.035C55.2226 528.404 57.776 528.967 61.1678 530.169C82.8115 537.845 95.6515 556.265 102.905 574.212C111.347 595.104 108.156 619.005 84.9584 640.202C87.1007 648.545 87.1546 658.605 88.1432 667.162L89.6272 694.247C90.7396 718.16 90.8543 721.001 90.8113 726.59C90.5579 760.431 91.4662 747.297 90.6685 779.724L88.3771 807.348C88.329 818.842 82.3568 903.83 80.4915 916.298C78.8033 927.591 78.2018 967.086 66.406 968.714C55.6469 970.201 54.5838 949.243 54.0258 944.678L48.2578 862.424C46.0576 832.699 46.6947 797.156 45.5203 766.903C45.5438 747.984 45.5507 761.907 45.9389 749.569C46.08 745.147 45.838 740.723 46.0507 736.284C46.2766 731.572 46.6281 727.266 46.7686 722.498L48.1357 688.548C48.9597 675.748 51.1066 651.451 53.2087 640.406Z" fill="black"/>
<path d="M310.256 251.791L94.9904 254.399V383.707C94.9904 394.742 94.8901 404.071 94.589 411.996C94.2885 419.821 93.7868 426.241 92.984 431.357L136.519 429.05V455.433H1V435.47C12.3348 435.069 20.8615 433.063 26.5791 429.25C32.1963 425.539 36.2086 420.523 38.6163 414.003C40.9232 407.582 42.2272 399.858 42.3275 390.93C42.4279 382.002 42.4279 372.271 42.4279 361.738V101.617C42.4279 93.3913 42.5282 85.6668 42.8293 78.3438C43.1303 70.9204 43.7318 64.2993 44.5346 58.1799L1 60.7886V34.1039H136.519V54.0671C125.083 54.4685 116.557 56.5748 110.94 60.3871C105.222 64.1989 101.21 69.3153 98.9023 75.8361C96.4951 82.2559 95.2914 89.88 95.1911 98.7078C95.0908 107.536 94.9904 117.267 94.9904 128.101V227.916H310.256V101.617C310.256 84.7642 310.858 70.3183 312.061 58.1799L268.527 60.7886V34.1039H404.046V54.0671C392.811 54.4685 384.385 56.5748 378.567 60.3871C372.849 64.1989 368.736 69.3153 366.43 75.8361C364.022 82.2559 362.818 89.88 362.718 98.7078C362.618 107.536 362.618 117.367 362.618 128.101V383.707C362.618 405.275 362.016 421.125 360.812 431.357L404.046 429.05V455.433H268.527V435.47C279.862 435.069 288.489 433.063 294.206 429.25C300.024 425.539 304.036 420.523 306.444 414.003C308.751 407.582 310.055 399.858 310.155 390.93C310.256 382.002 310.256 372.271 310.256 361.638V251.791ZM599.65 167.726C583.801 167.726 570.259 171.237 558.924 178.259C547.689 185.381 538.461 194.711 531.138 206.548C523.916 218.285 518.6 231.828 515.189 247.076C511.678 262.324 509.973 278.174 509.973 294.626C509.973 313.285 511.879 331.342 515.691 348.997C519.603 366.653 525.421 382.303 533.245 395.845C541.069 409.489 550.899 420.423 562.736 428.649C574.673 436.875 588.516 440.988 604.364 440.988C620.214 440.988 633.655 437.376 644.489 430.254C655.422 423.132 664.25 413.702 670.971 401.864C677.691 390.128 682.606 376.785 685.515 361.638C688.424 346.59 689.929 331.141 689.929 315.191C689.929 297.234 688.224 279.378 684.914 261.722C681.604 244.167 676.287 228.317 669.065 214.473C661.842 200.529 652.413 189.294 640.978 180.667C629.543 172.039 615.7 167.726 599.65 167.726ZM599.65 144.853C620.815 144.853 640.677 148.766 659.034 156.49C677.491 164.214 693.44 174.848 707.082 188.491C720.725 202.134 731.458 218.285 739.482 236.944C747.407 255.703 751.319 275.867 751.319 297.635C751.319 320.909 747.507 342.778 739.783 363.142C731.959 383.506 721.326 401.262 707.684 416.31C694.042 431.357 677.992 443.295 659.535 452.022C640.978 460.75 621.016 465.064 599.65 465.064C578.485 465.064 558.724 461.252 540.467 453.728C522.11 446.204 506.161 435.671 492.519 422.128C478.877 408.686 468.143 392.535 460.32 373.876C452.495 355.117 448.583 334.652 448.583 312.282C448.583 288.607 452.495 266.537 460.219 246.073C467.943 225.608 478.576 207.852 492.117 192.905C505.659 177.857 521.609 166.12 539.965 157.594C558.423 149.067 578.284 144.853 599.65 144.853ZM821.736 79.2464C821.736 73.0267 821.736 66.9073 821.837 61.0891C821.937 55.1704 822.539 48.2488 823.442 40.2233L780.81 42.5309V17.2512C793.951 17.2512 804.885 16.8498 813.612 15.9471C822.339 15.0439 829.46 13.8403 834.978 12.2352C840.394 10.6301 844.708 8.92459 847.817 7.01842C851.027 5.21318 853.736 3.20666 856.043 1H873.396V180.667C884.631 169.531 897.872 160.804 913.32 154.384C928.667 148.063 945.821 144.853 964.879 144.853C984.038 144.853 1001.99 148.465 1018.55 155.587C1035.1 162.71 1049.54 172.942 1061.78 186.084C1074.02 199.325 1083.65 215.376 1090.57 234.336C1097.59 253.195 1101 274.362 1101 297.936C1101 323.517 1096.69 346.69 1087.96 367.255C1079.23 387.82 1067.6 405.375 1053.25 419.821C1038.81 434.266 1022.16 445.502 1003.3 453.326C984.339 461.151 964.779 465.064 944.616 465.064C937.695 465.064 930.473 464.562 922.849 463.459C915.226 462.355 907.401 460.449 899.577 457.54C891.753 454.731 884.13 450.919 876.707 446.304C869.184 441.589 862.362 435.57 856.043 428.348L841.698 455.433H820.533L821.736 79.2464ZM946.322 174.347C933.081 174.347 919.94 177.457 907 183.676C894.06 189.795 882.826 198.122 873.396 208.555V361.136C873.396 377.287 875.403 390.428 879.315 400.761C883.227 411.094 888.543 419.219 895.163 425.238C901.884 431.257 909.508 435.37 918.034 437.577C926.56 439.884 935.388 440.988 944.616 440.988C959.061 440.988 972.202 437.878 983.838 431.658C995.574 425.539 1005.4 416.812 1013.53 405.475C1021.76 394.24 1027.97 380.698 1032.39 364.948C1036.8 349.299 1039.01 331.844 1039.01 312.783C1039.01 292.62 1037.1 273.961 1033.29 257.008C1029.48 239.954 1023.76 225.408 1016.04 213.27C1008.41 201.031 998.784 191.501 987.248 184.679C975.713 177.757 962.071 174.347 946.322 174.347Z" fill="black" stroke="black" stroke-width="0.0762" stroke-miterlimit="22.9256"/>
<path d="M234.26 932.01C235.464 933.716 237.069 935.321 239.075 936.625C241.181 937.929 243.389 938.932 245.695 939.735C248.103 940.537 250.31 941.039 252.516 941.239C254.623 941.44 256.429 941.54 258.034 941.54C263.952 941.34 269.067 939.935 273.581 937.427C278.095 934.819 281.807 930.806 284.716 925.389C287.725 919.872 289.832 912.85 291.337 904.122C292.841 895.495 293.543 885.062 293.543 872.723V558.732L232.154 561.341V534.656H392.248V554.619C382.318 554.619 374.293 556.124 368.174 559.134C362.155 562.243 357.441 566.457 354.131 571.774C350.72 577.191 348.513 583.511 347.51 590.733C346.407 597.956 345.905 605.781 345.905 614.207V809.022C345.905 837.211 343.999 861.287 340.288 881.15C336.576 901.012 330.758 917.264 322.934 929.803C315.11 942.343 304.978 951.371 292.54 957.089C280.102 962.807 265.256 965.616 248.002 965.616C239.677 965.616 231.551 964.613 223.928 962.707C216.305 960.701 209.584 957.892 203.665 954.08C197.848 950.368 193.133 945.854 189.722 940.537C186.312 935.22 184.607 929.201 184.607 922.58C184.607 918.568 185.108 914.856 186.212 911.144C187.315 907.533 188.92 904.223 191.027 901.314C193.233 898.304 195.541 896.097 198.149 894.692C200.656 893.188 203.063 892.185 205.17 891.683C207.377 891.181 209.885 890.98 212.794 890.98C216.305 890.98 219.815 891.783 223.126 893.388C226.436 894.993 229.144 897.1 231.151 899.809C233.257 902.517 234.761 905.527 235.765 908.737C236.768 912.047 237.169 915.257 237.169 918.166C237.169 920.173 236.969 922.48 236.467 924.888C235.966 927.395 235.263 929.803 234.26 932.01ZM583.139 668.278C567.289 668.278 553.747 671.789 542.413 678.811C531.178 685.934 521.949 695.263 514.626 707.1C507.404 718.837 502.088 732.38 498.677 747.628C495.166 762.876 493.462 778.726 493.462 795.178C493.462 813.837 495.367 831.894 499.179 849.55C503.091 867.205 508.909 882.855 516.733 896.398C524.558 910.041 534.388 920.975 546.224 929.201C558.161 937.427 572.004 941.54 587.853 941.54C603.702 941.54 617.144 937.929 627.977 930.806C638.911 923.684 647.738 914.254 654.459 902.417C661.179 890.68 666.095 877.338 669.004 862.19C671.913 847.143 673.417 831.694 673.417 815.743C673.417 797.787 671.712 779.93 668.402 762.274C665.092 744.719 659.775 728.869 652.553 715.026C645.331 701.081 635.901 689.846 624.466 681.219C613.031 672.591 599.188 668.278 583.139 668.278ZM583.139 645.406C604.304 645.406 624.165 649.318 642.522 657.043C660.979 664.767 676.928 675.4 690.571 689.043C704.213 702.686 714.946 718.837 722.971 737.496C730.895 756.255 734.807 776.419 734.807 798.188C734.807 821.461 730.996 843.33 723.272 863.695C715.447 884.059 704.814 901.815 691.172 916.862C677.53 931.91 661.48 943.847 643.024 952.575C624.466 961.302 604.504 965.616 583.139 965.616C561.973 965.616 542.212 961.804 523.955 954.28C505.599 946.757 489.649 936.223 476.007 922.68C462.365 909.238 451.632 893.087 443.808 874.428C435.984 855.669 432.072 835.205 432.072 812.834C432.072 789.159 435.984 767.09 443.708 746.625C451.432 726.16 462.064 708.404 475.606 693.457C489.148 678.41 505.097 666.673 523.454 658.146C541.911 649.619 561.772 645.406 583.139 645.406ZM805.225 579.799C805.225 573.579 805.225 567.46 805.325 561.641C805.425 555.723 806.028 548.801 806.93 540.776L764.299 543.083V517.803C777.439 517.803 788.373 517.402 797.1 516.499C805.827 515.596 812.949 514.393 818.466 512.787C823.883 511.182 828.196 509.477 831.306 507.571C834.516 505.765 837.224 503.759 839.531 501.552H856.885V681.219C868.119 670.084 881.361 661.356 896.808 654.936C912.156 648.616 929.309 645.406 948.368 645.406C967.527 645.406 985.482 649.017 1002.03 656.14C1018.58 663.262 1033.03 673.495 1045.27 686.636C1057.5 699.878 1067.13 715.928 1074.06 734.888C1081.08 753.748 1084.49 774.915 1084.49 798.489C1084.49 824.069 1080.18 847.243 1071.45 867.808C1062.72 888.372 1051.08 905.928 1036.74 920.374C1022.3 934.819 1005.64 946.055 986.786 953.879C967.828 961.704 948.267 965.616 928.105 965.616C921.183 965.616 913.961 965.115 906.338 964.011C898.714 962.907 890.89 961.002 883.065 958.093C875.242 955.283 867.618 951.471 860.195 946.857C852.672 942.142 845.85 936.123 839.531 928.9L825.187 955.986H804.021L805.225 579.799ZM929.81 674.899C916.569 674.899 903.429 678.009 890.488 684.228C877.548 690.347 866.314 698.674 856.885 709.107V861.688C856.885 877.839 858.891 890.98 862.803 901.314C866.715 911.646 872.032 919.771 878.652 925.79C885.373 931.809 892.996 935.922 901.523 938.129C910.049 940.436 918.877 941.54 928.105 941.54C942.55 941.54 955.69 938.431 967.326 932.211C979.062 926.091 988.893 917.364 997.018 906.028C1005.24 894.793 1011.46 881.25 1015.88 865.5C1020.29 849.851 1022.5 832.396 1022.5 813.336C1022.5 793.172 1020.59 774.513 1016.78 757.56C1012.97 740.506 1007.25 725.96 999.526 713.822C991.902 701.583 982.272 692.053 970.737 685.232C959.201 678.309 945.559 674.899 929.81 674.899Z" fill="black" stroke="black" stroke-width="0.0762" stroke-miterlimit="22.9256"/>
<path d="M152.939 1249.79H131.826V1098.09H40.2598V1249.79H18.7914V1078.64H152.939V1249.79ZM226.121 1234.37C235.847 1234.37 243.992 1231.37 250.555 1225.36C257.197 1219.27 260.518 1211.79 260.518 1202.94V1192.86L227.544 1194.87C219.242 1195.43 212.797 1197.44 208.211 1200.92C203.704 1204.4 201.45 1209.07 201.45 1214.92C201.45 1220.77 203.704 1225.47 208.211 1229.03C212.718 1232.59 218.688 1234.37 226.121 1234.37ZM221.495 1251.92C209.239 1251.92 199.315 1248.52 191.724 1241.72C184.212 1234.92 180.456 1225.99 180.456 1214.92C180.456 1204.32 184.331 1195.86 192.08 1189.54C199.908 1183.21 210.939 1179.65 225.172 1178.86L260.518 1176.84V1166.53C260.518 1159.01 258.146 1153.12 253.401 1148.85C248.657 1144.58 242.015 1142.45 233.475 1142.45C225.647 1142.45 219.281 1144.19 214.379 1147.67C209.476 1151.07 206.353 1155.85 205.009 1162.02H185.082C185.794 1151.03 190.538 1142.01 199.315 1134.98C208.171 1127.86 219.716 1124.3 233.949 1124.3C248.42 1124.3 259.885 1127.94 268.346 1135.21C276.886 1142.49 281.156 1152.25 281.156 1164.51V1249.79H261.585V1228.56H261.111C257.394 1235.6 251.938 1241.25 244.743 1245.52C237.547 1249.79 229.798 1251.92 221.495 1251.92ZM369.639 1124.3C385.453 1124.3 398.184 1130.11 407.831 1141.74C417.557 1153.36 422.42 1168.82 422.42 1188.11C422.42 1207.33 417.597 1222.79 407.95 1234.49C398.303 1246.11 385.691 1251.92 370.113 1251.92C361.415 1251.92 353.626 1249.95 346.747 1245.99C339.868 1242.04 334.57 1236.62 330.853 1229.74H330.379V1290.95H309.741V1126.44H329.311V1147.31H329.786C333.66 1140.19 339.077 1134.58 346.035 1130.47C352.994 1126.36 360.862 1124.3 369.639 1124.3ZM365.606 1233.78C376.597 1233.78 385.295 1229.67 391.7 1221.44C398.105 1213.22 401.307 1202.11 401.307 1188.11C401.307 1174.12 398.105 1163.01 391.7 1154.78C385.295 1146.56 376.597 1142.45 365.606 1142.45C355.01 1142.45 346.47 1146.64 339.986 1155.02C333.502 1163.4 330.26 1174.43 330.26 1188.11C330.26 1201.87 333.502 1212.94 339.986 1221.32C346.47 1229.63 355.01 1233.78 365.606 1233.78ZM530.829 1126.44V1143.4H490.976V1249.79H470.576V1143.4H430.723V1126.44H530.829ZM631.173 1249.79V1194.28H570.326V1249.79H549.925V1126.44H570.326V1177.32H631.173V1126.44H651.574V1249.79H631.173ZM730.212 1142.21C720.644 1142.21 712.697 1145.53 706.371 1152.17C700.125 1158.74 696.685 1167.2 696.052 1177.56H763.067C762.83 1167.12 759.706 1158.62 753.697 1152.06C747.687 1145.49 739.859 1142.21 730.212 1142.21ZM762.592 1214.44H782.875C781.056 1225.36 775.363 1234.33 765.795 1241.37C756.306 1248.41 744.88 1251.92 731.517 1251.92C713.883 1251.92 700.006 1246.23 689.885 1234.84C679.763 1223.46 674.703 1208.04 674.703 1188.59C674.703 1169.29 679.763 1153.76 689.885 1141.97C700.085 1130.19 713.646 1124.3 730.568 1124.3C747.173 1124.3 760.299 1129.88 769.946 1141.02C779.593 1152.17 784.417 1167.12 784.417 1185.86V1193.69H695.934V1194.87C695.934 1206.73 699.176 1216.22 705.66 1223.34C712.144 1230.46 720.921 1234.01 731.991 1234.01C739.74 1234.01 746.343 1232.24 751.799 1228.68C757.255 1225.12 760.853 1220.37 762.592 1214.44ZM867.325 1124.3C883.139 1124.3 895.87 1130.11 905.517 1141.74C915.243 1153.36 920.106 1168.82 920.106 1188.11C920.106 1207.33 915.282 1222.79 905.636 1234.49C895.989 1246.11 883.377 1251.92 867.799 1251.92C859.101 1251.92 851.312 1249.95 844.433 1245.99C837.554 1242.04 832.256 1236.62 828.539 1229.74H828.065V1290.95H807.427V1126.44H826.997V1147.31H827.472C831.346 1140.19 836.763 1134.58 843.721 1130.47C850.68 1126.36 858.548 1124.3 867.325 1124.3ZM863.292 1233.78C874.283 1233.78 882.981 1229.67 889.386 1221.44C895.791 1213.22 898.993 1202.11 898.993 1188.11C898.993 1174.12 895.791 1163.01 889.386 1154.78C882.981 1146.56 874.283 1142.45 863.292 1142.45C852.696 1142.45 844.156 1146.64 837.672 1155.02C831.188 1163.4 827.946 1174.43 827.946 1188.11C827.946 1201.87 831.188 1212.94 837.672 1221.32C844.156 1229.63 852.696 1233.78 863.292 1233.78ZM1048.56 1249.79V1126.44H1068.96V1249.79H1048.56ZM986.409 1182.78H963.399V1232.83H986.409C994.395 1232.83 1000.76 1230.54 1005.5 1225.95C1010.33 1221.36 1012.74 1215.31 1012.74 1207.8C1012.74 1200.21 1010.33 1194.16 1005.5 1189.65C1000.76 1185.07 994.395 1182.78 986.409 1182.78ZM942.998 1249.79V1126.44H963.399V1165.81H986.765C1000.92 1165.81 1012.19 1169.61 1020.57 1177.2C1028.95 1184.79 1033.14 1194.99 1033.14 1207.8C1033.14 1220.61 1028.95 1230.81 1020.57 1238.4C1012.19 1245.99 1000.92 1249.79 986.765 1249.79H942.998Z" fill="black"/>
</svg>
